<?xml version="1.0" encoding="UTF-8" standalone="no"?><svg xmlns="http://www.w3.org/2000/svg" xmlns:xlink="http://www.w3.org/1999/xlink" contentStyleType="text/css" height="434px" preserveAspectRatio="none" style="width:203px;height:434px;background:#FFFFFF;" version="1.1" viewBox="0 0 203 434" width="203px" zoomAndPan="magnify"><defs/><g><ellipse cx="101.5" cy="20" fill="#222222" rx="10" ry="10" style="stroke:#222222;stroke-width:1.0;"/><rect fill="#F1F1F1" height="47.9375" rx="12.5" ry="12.5" style="stroke:#181818;stroke-width:0.5;" width="115" x="44" y="50"/><text fill="#000000" font-family="sans-serif" font-size="12" lengthAdjust="spacing" textLength="95" x="54" y="71.1387">Calculate Insulin</text><text fill="#000000" font-family="sans-serif" font-size="12" lengthAdjust="spacing" textLength="50" x="58" y="85.1074">Delivery</text><rect fill="#F1F1F1" height="33.9688" rx="12.5" ry="12.5" style="stroke:#181818;stroke-width:0.5;" width="142" x="30.5" y="117.9375"/><text fill="#000000" font-family="sans-serif" font-size="12" lengthAdjust="spacing" textLength="122" x="40.5" y="139.0762">Insulin requirements</text><rect fill="#F1F1F1" height="33.9688" rx="12.5" ry="12.5" style="stroke:#181818;stroke-width:0.5;" width="181" x="11" y="171.9063"/><text fill="#000000" font-family="sans-serif" font-size="12" lengthAdjust="spacing" textLength="161" x="21" y="193.0449">Calculate Pump Commands</text><rect fill="#F1F1F1" height="47.9375" rx="12.5" ry="12.5" style="stroke:#181818;stroke-width:0.5;" width="99" x="52" y="225.875"/><text fill="#000000" font-family="sans-serif" font-size="12" lengthAdjust="spacing" textLength="79" x="62" y="247.0137">Pump Control</text><text fill="#000000" font-family="sans-serif" font-size="12" lengthAdjust="spacing" textLength="67" x="66" y="260.9824">Commands</text><rect fill="#F1F1F1" height="33.9688" rx="12.5" ry="12.5" style="stroke:#181818;stroke-width:0.5;" width="99" x="52" y="293.8125"/><text fill="#000000" font-family="sans-serif" font-size="12" lengthAdjust="spacing" textLength="79" x="62" y="314.9512">Control Pump</text><rect fill="#F1F1F1" height="33.9688" rx="12.5" ry="12.5" style="stroke:#181818;stroke-width:0.5;" width="93" x="55" y="347.7813"/><text fill="#000000" font-family="sans-serif" font-size="12" lengthAdjust="spacing" textLength="73" x="65" y="368.9199">Insulin Pump</text><ellipse cx="101.5" cy="412.75" fill="none" rx="11" ry="11" style="stroke:#222222;stroke-width:1.0;"/><ellipse cx="101.5" cy="412.75" fill="#222222" rx="6" ry="6" style="stroke:#111111;stroke-width:1.0;"/><line style="stroke:#181818;stroke-width:1.0;" x1="101.5" x2="101.5" y1="30" y2="50"/><polygon fill="#181818" points="97.5,40,101.5,50,105.5,40,101.5,44" style="stroke:#181818;stroke-width:1.0;"/><line style="stroke:#181818;stroke-width:1.0;" x1="101.5" x2="101.5" y1="97.9375" y2="117.9375"/><polygon fill="#181818" points="97.5,107.9375,101.5,117.9375,105.5,107.9375,101.5,111.9375" style="stroke:#181818;stroke-width:1.0;"/><line style="stroke:#181818;stroke-width:1.0;" x1="101.5" x2="101.5" y1="151.9063" y2="171.9063"/><polygon fill="#181818" points="97.5,161.9063,101.5,171.9063,105.5,161.9063,101.5,165.9063" style="stroke:#181818;stroke-width:1.0;"/><line style="stroke:#181818;stroke-width:1.0;" x1="101.5" x2="101.5" y1="205.875" y2="225.875"/><polygon fill="#181818" points="97.5,215.875,101.5,225.875,105.5,215.875,101.5,219.875" style="stroke:#181818;stroke-width:1.0;"/><line style="stroke:#181818;stroke-width:1.0;" x1="101.5" x2="101.5" y1="273.8125" y2="293.8125"/><polygon fill="#181818" points="97.5,283.8125,101.5,293.8125,105.5,283.8125,101.5,287.8125" style="stroke:#181818;stroke-width:1.0;"/><line style="stroke:#181818;stroke-width:1.0;" x1="101.5" x2="101.5" y1="327.7813" y2="347.7813"/><polygon fill="#181818" points="97.5,337.7813,101.5,347.7813,105.5,337.7813,101.5,341.7813" style="stroke:#181818;stroke-width:1.0;"/><line style="stroke:#181818;stroke-width:1.0;" x1="101.5" x2="101.5" y1="381.75" y2="401.75"/><polygon fill="#181818" points="97.5,391.75,101.5,401.75,105.5,391.75,101.5,395.75" style="stroke:#181818;stroke-width:1.0;"/><!--MD5=[004afaa6a5fb5e6eb962fa91462fbcae]
@startuml
start
:Calculate Insulin\n Delivery;
:Insulin requirements;
:Calculate Pump Commands;
:Pump Control\n Commands;
:Control Pump;
:Insulin Pump;
stop
@enduml

PlantUML version 1.2022.14beta6(Unknown compile time)
(GPL source distribution)
Java Runtime: Java(TM) SE Runtime Environment
JVM: Java HotSpot(TM) 64-Bit Server VM
Default Encoding: UTF-8
Language: en
Country: US
--></g></svg>