<?xml version="1.0" encoding="UTF-8" standalone="no"?><svg xmlns="http://www.w3.org/2000/svg" xmlns:xlink="http://www.w3.org/1999/xlink" contentStyleType="text/css" height="476px" preserveAspectRatio="none" style="width:137px;height:476px;background:#FFFFFF;" version="1.1" viewBox="0 0 137 476" width="137px" zoomAndPan="magnify"><defs/><g><ellipse cx="68.5" cy="20" fill="#222222" rx="10" ry="10" style="stroke:#222222;stroke-width:1.0;"/><rect fill="#F1F1F1" height="47.9375" rx="12.5" ry="12.5" style="stroke:#181818;stroke-width:0.5;" width="93" x="22" y="50"/><text fill="#000000" font-family="sans-serif" font-size="12" lengthAdjust="spacing" textLength="73" x="32" y="71.1387">Blood sugar</text><text fill="#000000" font-family="sans-serif" font-size="12" lengthAdjust="spacing" textLength="42" x="36" y="85.1074">sensor</text><rect fill="#F1F1F1" height="47.9375" rx="12.5" ry="12.5" style="stroke:#181818;stroke-width:0.5;" width="88" x="24.5" y="117.9375"/><text fill="#000000" font-family="sans-serif" font-size="12" lengthAdjust="spacing" textLength="68" x="34.5" y="139.0762">Get Sensor</text><text fill="#000000" font-family="sans-serif" font-size="12" lengthAdjust="spacing" textLength="33" x="38.5" y="153.0449">Value</text><rect fill="#F1F1F1" height="33.9688" rx="12.5" ry="12.5" style="stroke:#181818;stroke-width:0.5;" width="94" x="21.5" y="185.875"/><text fill="#000000" font-family="sans-serif" font-size="12" lengthAdjust="spacing" textLength="74" x="31.5" y="207.0137">Sensor Data</text><rect fill="#F1F1F1" height="47.9375" rx="12.5" ry="12.5" style="stroke:#181818;stroke-width:0.5;" width="113" x="12" y="239.8438"/><text fill="#000000" font-family="sans-serif" font-size="12" lengthAdjust="spacing" textLength="93" x="22" y="260.9824">Compute Sugar</text><text fill="#000000" font-family="sans-serif" font-size="12" lengthAdjust="spacing" textLength="32" x="26" y="274.9512">Level</text><rect fill="#F1F1F1" height="47.9375" rx="12.5" ry="12.5" style="stroke:#181818;stroke-width:0.5;" width="94" x="21.5" y="307.7813"/><text fill="#000000" font-family="sans-serif" font-size="12" lengthAdjust="spacing" textLength="74" x="31.5" y="328.9199">Blood Sugar</text><text fill="#000000" font-family="sans-serif" font-size="12" lengthAdjust="spacing" textLength="32" x="35.5" y="342.8887">Level</text><rect fill="#F1F1F1" height="47.9375" rx="12.5" ry="12.5" style="stroke:#181818;stroke-width:0.5;" width="115" x="11" y="375.7188"/><text fill="#000000" font-family="sans-serif" font-size="12" lengthAdjust="spacing" textLength="95" x="21" y="396.8574">Calculate Insulin</text><text fill="#000000" font-family="sans-serif" font-size="12" lengthAdjust="spacing" textLength="50" x="25" y="410.8262">Delivery</text><ellipse cx="68.5" cy="454.6563" fill="none" rx="11" ry="11" style="stroke:#222222;stroke-width:1.0;"/><ellipse cx="68.5" cy="454.6563" fill="#222222" rx="6" ry="6" style="stroke:#111111;stroke-width:1.0;"/><line style="stroke:#181818;stroke-width:1.0;" x1="68.5" x2="68.5" y1="30" y2="50"/><polygon fill="#181818" points="64.5,40,68.5,50,72.5,40,68.5,44" style="stroke:#181818;stroke-width:1.0;"/><line style="stroke:#181818;stroke-width:1.0;" x1="68.5" x2="68.5" y1="97.9375" y2="117.9375"/><polygon fill="#181818" points="64.5,107.9375,68.5,117.9375,72.5,107.9375,68.5,111.9375" style="stroke:#181818;stroke-width:1.0;"/><line style="stroke:#181818;stroke-width:1.0;" x1="68.5" x2="68.5" y1="165.875" y2="185.875"/><polygon fill="#181818" points="64.5,175.875,68.5,185.875,72.5,175.875,68.5,179.875" style="stroke:#181818;stroke-width:1.0;"/><line style="stroke:#181818;stroke-width:1.0;" x1="68.5" x2="68.5" y1="219.8438" y2="239.8438"/><polygon fill="#181818" points="64.5,229.8438,68.5,239.8438,72.5,229.8438,68.5,233.8438" style="stroke:#181818;stroke-width:1.0;"/><line style="stroke:#181818;stroke-width:1.0;" x1="68.5" x2="68.5" y1="287.7813" y2="307.7813"/><polygon fill="#181818" points="64.5,297.7813,68.5,307.7813,72.5,297.7813,68.5,301.7813" style="stroke:#181818;stroke-width:1.0;"/><line style="stroke:#181818;stroke-width:1.0;" x1="68.5" x2="68.5" y1="355.7188" y2="375.7188"/><polygon fill="#181818" points="64.5,365.7188,68.5,375.7188,72.5,365.7188,68.5,369.7188" style="stroke:#181818;stroke-width:1.0;"/><line style="stroke:#181818;stroke-width:1.0;" x1="68.5" x2="68.5" y1="423.6563" y2="443.6563"/><polygon fill="#181818" points="64.5,433.6563,68.5,443.6563,72.5,433.6563,68.5,437.6563" style="stroke:#181818;stroke-width:1.0;"/><!--MD5=[7284ee1d1a7d2e455a27a7b1772e69d2]
@startuml
start
:Blood sugar\n sensor;
:Get Sensor\n Value;
:Sensor Data;
:Compute Sugar\n Level;
:Blood Sugar\n Level;
:Calculate Insulin\n Delivery;
stop
@enduml

PlantUML version 1.2022.14beta6(Unknown compile time)
(GPL source distribution)
Java Runtime: Java(TM) SE Runtime Environment
JVM: Java HotSpot(TM) 64-Bit Server VM
Default Encoding: UTF-8
Language: en
Country: US
--></g></svg>