<?xml version="1.0" encoding="UTF-8" standalone="no"?>
<!DOCTYPE svg PUBLIC "-//W3C//DTD SVG 1.1//EN"
 "http://www.w3.org/Graphics/SVG/1.1/DTD/svg11.dtd">
<!-- Generated by graphviz version 3.0.0 (20221109.1736)
 -->
<!-- Pages: 1 -->
<svg width="1093pt" height="152pt"
 viewBox="0.00 0.00 1093.00 152.00" xmlns="http://www.w3.org/2000/svg" xmlns:xlink="http://www.w3.org/1999/xlink">
<g id="graph0" class="graph" transform="scale(1 1) rotate(0) translate(4 148)">
<polygon fill="white" stroke="transparent" points="-4,4 -4,-148 1089,-148 1089,4 -4,4"/>
<!-- Condition -->
<g id="node1" class="node">
<title>Condition</title>
<polygon fill="none" stroke="black" points="8.5,-58 8.5,-86 105.5,-86 105.5,-58 8.5,-58"/>
<text text-anchor="start" x="13.5" y="-69.2" font-family="Helvetica,sans-Serif" font-weight="bold" font-size="16.00">Condition</text>
</g>
<!-- Patient -->
<g id="node3" class="node">
<title>Patient</title>
<polygon fill="none" stroke="black" points="313,-58 313,-86 387,-86 387,-58 313,-58"/>
<text text-anchor="start" x="318" y="-69.2" font-family="Helvetica,sans-Serif" font-weight="bold" font-size="16.00">Patient</text>
</g>
<!-- Condition&#45;&#45;Patient -->
<g id="edge1" class="edge">
<title>Condition&#45;&#45;Patient</title>
<path fill="none" stroke="#7f7f7f" stroke-dasharray="5,2" d="M113.02,-72C168.68,-72 253.31,-72 304.65,-72"/>
<text text-anchor="start" x="150" y="-75.8" font-family="Times,serif" font-size="14.00"> diagnosed with </text>
<text text-anchor="start" x="273.65" y="-60.8" font-family="Times,serif" font-size="14.00">1..N</text>
<text text-anchor="start" x="113.02" y="-60.8" font-family="Times,serif" font-size="14.00">1..N</text>
</g>
<!-- Consultant -->
<g id="node2" class="node">
<title>Consultant</title>
<polygon fill="none" stroke="black" points="608,-112 608,-140 716,-140 716,-112 608,-112"/>
<text text-anchor="start" x="613" y="-123.2" font-family="Helvetica,sans-Serif" font-weight="bold" font-size="16.00">Consultant</text>
</g>
<!-- Patient&#45;&#45;Consultant -->
<g id="edge2" class="edge">
<title>Patient&#45;&#45;Consultant</title>
<path fill="none" stroke="#7f7f7f" stroke-dasharray="5,2" d="M395.01,-82.99C406.97,-85.79 419.95,-88.67 432,-91 488.47,-101.92 553.3,-111.56 599.54,-117.95"/>
<text text-anchor="start" x="433.5" y="-109.8" font-family="Times,serif" font-size="14.00"> referred to </text>
<text text-anchor="start" x="589.54" y="-106.75" font-family="Times,serif" font-size="14.00">1</text>
<text text-anchor="start" x="395.01" y="-86.79" font-family="Times,serif" font-size="14.00">1..N</text>
</g>
<!-- Consultation -->
<g id="node4" class="node">
<title>Consultation</title>
<polygon fill="none" stroke="black" points="600,-58 600,-86 725,-86 725,-58 600,-58"/>
<text text-anchor="start" x="605" y="-69.2" font-family="Helvetica,sans-Serif" font-weight="bold" font-size="16.00">Consultation</text>
</g>
<!-- Patient&#45;&#45;Consultation -->
<g id="edge3" class="edge">
<title>Patient&#45;&#45;Consultation</title>
<path fill="none" stroke="#7f7f7f" stroke-dasharray="5,2" d="M395.09,-72C446.24,-72 531.23,-72 591.34,-72"/>
<text text-anchor="start" x="445.5" y="-75.8" font-family="Times,serif" font-size="14.00"> attends </text>
<text text-anchor="start" x="560.34" y="-60.8" font-family="Times,serif" font-size="14.00">1..N</text>
<text text-anchor="start" x="395.09" y="-60.8" font-family="Times,serif" font-size="14.00">1..N</text>
</g>
<!-- GeneralPractitioner -->
<g id="node6" class="node">
<title>GeneralPractitioner</title>
<polygon fill="none" stroke="black" points="568,-4 568,-32 756,-32 756,-4 568,-4"/>
<text text-anchor="start" x="573" y="-15.2" font-family="Helvetica,sans-Serif" font-weight="bold" font-size="16.00">GeneralPractitioner</text>
</g>
<!-- Patient&#45;&#45;GeneralPractitioner -->
<g id="edge4" class="edge">
<title>Patient&#45;&#45;GeneralPractitioner</title>
<path fill="none" stroke="#7f7f7f" stroke-dasharray="5,2" d="M395.01,-61.01C406.97,-58.21 419.95,-55.33 432,-53 473.66,-44.94 519.87,-37.58 559.81,-31.71"/>
<text text-anchor="start" x="432" y="-56.8" font-family="Times,serif" font-size="14.00"> referred by </text>
<text text-anchor="start" x="549.81" y="-20.51" font-family="Times,serif" font-size="14.00">1</text>
<text text-anchor="start" x="395.01" y="-49.81" font-family="Times,serif" font-size="14.00">1..N</text>
</g>
<!-- HospitalDoctor -->
<g id="node5" class="node">
<title>HospitalDoctor</title>
<polygon fill="none" stroke="black" points="931,-112 931,-140 1077,-140 1077,-112 931,-112"/>
<text text-anchor="start" x="936" y="-123.2" font-family="Helvetica,sans-Serif" font-weight="bold" font-size="16.00">HospitalDoctor</text>
</g>
<!-- Consultation&#45;&#45;HospitalDoctor -->
<g id="edge5" class="edge">
<title>Consultation&#45;&#45;HospitalDoctor</title>
<path fill="none" stroke="#7f7f7f" stroke-dasharray="5,2" d="M732.62,-83.06C787.8,-91.82 864.95,-104.08 922.73,-113.25"/>
<text text-anchor="start" x="891.73" y="-102.05" font-family="Times,serif" font-size="14.00">1..N</text>
<text text-anchor="start" x="732.62" y="-71.86" font-family="Times,serif" font-size="14.00">1..N</text>
</g>
<!-- Medication -->
<g id="node7" class="node">
<title>Medication</title>
<polygon fill="none" stroke="black" points="950,-58 950,-86 1059,-86 1059,-58 950,-58"/>
<text text-anchor="start" x="955" y="-69.2" font-family="Helvetica,sans-Serif" font-weight="bold" font-size="16.00">Medication</text>
</g>
<!-- Consultation&#45;&#45;Medication -->
<g id="edge6" class="edge">
<title>Consultation&#45;&#45;Medication</title>
<path fill="none" stroke="#7f7f7f" stroke-dasharray="5,2" d="M732.62,-72C794.02,-72 882.62,-72 941.46,-72"/>
<text text-anchor="start" x="801" y="-75.8" font-family="Times,serif" font-size="14.00"> prescribes </text>
<text text-anchor="start" x="910.46" y="-60.8" font-family="Times,serif" font-size="14.00">1..N</text>
<text text-anchor="start" x="732.62" y="-60.8" font-family="Times,serif" font-size="14.00">1..N</text>
</g>
<!-- Treatment -->
<g id="node8" class="node">
<title>Treatment</title>
<polygon fill="none" stroke="black" points="953,-4 953,-32 1055,-32 1055,-4 953,-4"/>
<text text-anchor="start" x="958" y="-15.2" font-family="Helvetica,sans-Serif" font-weight="bold" font-size="16.00">Treatment</text>
</g>
<!-- Consultation&#45;&#45;Treatment -->
<g id="edge7" class="edge">
<title>Consultation&#45;&#45;Treatment</title>
<path fill="none" stroke="#7f7f7f" stroke-dasharray="5,2" d="M732.62,-60.94C795.18,-51.01 885.99,-36.58 944.78,-27.25"/>
<text text-anchor="start" x="801" y="-52.8" font-family="Times,serif" font-size="14.00"> prescribes </text>
<text text-anchor="start" x="913.78" y="-16.05" font-family="Times,serif" font-size="14.00">1..N</text>
<text text-anchor="start" x="732.62" y="-49.74" font-family="Times,serif" font-size="14.00">1..N</text>
</g>
</g>
</svg>
