<?xml version="1.0" encoding="UTF-8" standalone="no"?><svg xmlns="http://www.w3.org/2000/svg" xmlns:xlink="http://www.w3.org/1999/xlink" contentStyleType="text/css" height="600.5256px" preserveAspectRatio="none" style="width:440px;height:600px;background:#FFFFFF;" version="1.1" viewBox="0 0 440 600" width="440.1946px" zoomAndPan="magnify"><defs/><g><g id="waiting"><rect fill="#F1F1F1" height="35.9783" rx="8.947" ry="8.947" style="stroke:#181818;stroke-width:0.35788178717217467;" width="83.7443" x="222.9604" y="5.0103"/><line style="stroke:#181818;stroke-width:0.35788178717217467;" x1="222.9604" x2="306.7047" y1="23.8327" y2="23.8327"/><text fill="#000000" font-family="sans-serif" font-size="10.0207" lengthAdjust="spacing" textLength="39.367" x="245.149" y="17.8906">Waiting</text><text fill="#000000" font-family="sans-serif" font-size="8.5892" lengthAdjust="spacing" textLength="69.4291" x="226.5392" y="35.3842">do: display time</text></g><g id="setTime"><rect fill="#F1F1F1" height="45.9766" rx="8.947" ry="8.947" style="stroke:#181818;stroke-width:0.35788178717217467;" width="81.597" x="73.7236" y="277.7163"/><line style="stroke:#181818;stroke-width:0.35788178717217467;" x1="73.7236" x2="155.3207" y1="296.5386" y2="296.5386"/><text fill="#000000" font-family="sans-serif" font-size="10.0207" lengthAdjust="spacing" textLength="45.0931" x="91.9756" y="290.5965">set Time</text><text fill="#000000" font-family="sans-serif" font-size="8.5892" lengthAdjust="spacing" textLength="67.2818" x="77.3025" y="308.0901">do: get number</text><text fill="#000000" font-family="sans-serif" font-size="8.5892" lengthAdjust="spacing" textLength="56.5453" x="77.3025" y="318.0884">exit: set time</text></g><g id="disabled"><rect fill="#F1F1F1" height="35.9783" rx="8.947" ry="8.947" style="stroke:#181818;stroke-width:0.35788178717217467;" width="103.7857" x="61.9135" y="378.6389"/><line style="stroke:#181818;stroke-width:0.35788178717217467;" x1="61.9135" x2="165.6993" y1="397.4613" y2="397.4613"/><text fill="#000000" font-family="sans-serif" font-size="10.0207" lengthAdjust="spacing" textLength="44.3773" x="91.6177" y="391.5192">Disabled</text><text fill="#000000" font-family="sans-serif" font-size="8.5892" lengthAdjust="spacing" textLength="89.4704" x="65.4924" y="409.0127">do: display `waiting`</text></g><g id="enabled"><rect fill="#F1F1F1" height="35.9783" rx="8.947" ry="8.947" style="stroke:#181818;stroke-width:0.35788178717217467;" width="95.9123" x="176.0778" y="469.5409"/><line style="stroke:#181818;stroke-width:0.35788178717217467;" x1="176.0778" x2="271.9902" y1="488.3633" y2="488.3633"/><text fill="#000000" font-family="sans-serif" font-size="10.0207" lengthAdjust="spacing" textLength="41.5143" x="203.2769" y="482.4212">Enabled</text><text fill="#000000" font-family="sans-serif" font-size="8.5892" lengthAdjust="spacing" textLength="81.597" x="179.6567" y="499.9147">do: display 'Ready'</text></g><g id="operation"><rect fill="#F1F1F1" height="35.9783" rx="8.947" ry="8.947" style="stroke:#181818;stroke-width:0.35788178717217467;" width="87.3232" x="234.7705" y="560.4429"/><line style="stroke:#181818;stroke-width:0.35788178717217467;" x1="234.7705" x2="322.0936" y1="579.2652" y2="579.2652"/><text fill="#000000" font-family="sans-serif" font-size="10.0207" lengthAdjust="spacing" textLength="52.2507" x="252.3067" y="573.3231">Operation</text><text fill="#000000" font-family="sans-serif" font-size="8.5892" lengthAdjust="spacing" textLength="73.0079" x="238.3493" y="590.8167">do operate oven</text></g><g id="fullPower"><rect fill="#F1F1F1" height="35.9783" rx="8.947" ry="8.947" style="stroke:#181818;stroke-width:0.35788178717217467;" width="105.933" x="5.0103" y="95.9123"/><line style="stroke:#181818;stroke-width:0.35788178717217467;" x1="5.0103" x2="110.9434" y1="114.7347" y2="114.7347"/><text fill="#000000" font-family="sans-serif" font-size="10.0207" lengthAdjust="spacing" textLength="47.2404" x="34.3567" y="108.7926">fullPower</text><text fill="#000000" font-family="sans-serif" font-size="8.5892" lengthAdjust="spacing" textLength="91.6177" x="8.5892" y="126.2861">do: set power = 600</text></g><g id="halfPower"><rect fill="#F1F1F1" height="35.9783" rx="8.947" ry="8.947" style="stroke:#181818;stroke-width:0.35788178717217467;" width="105.933" x="62.9872" y="186.8143"/><line style="stroke:#181818;stroke-width:0.35788178717217467;" x1="62.9872" x2="168.9202" y1="205.6366" y2="205.6366"/><text fill="#000000" font-family="sans-serif" font-size="10.0207" lengthAdjust="spacing" textLength="50.8192" x="90.5441" y="199.6945">halfPower</text><text fill="#000000" font-family="sans-serif" font-size="8.5892" lengthAdjust="spacing" textLength="91.6177" x="66.566" y="217.1881">do: set power = 300</text></g><ellipse cx="190.3931" cy="22.9044" fill="#222222" rx="7.1576" ry="7.1576" style="stroke:none;stroke-width:0.7157635743443493;"/><ellipse cx="264.8325" cy="113.8064" fill="none" rx="7.1576" ry="7.1576" style="stroke:#222222;stroke-width:0.7157635743443493;"/><ellipse cx="265.1904" cy="114.1643" fill="#222222" rx="4.2946" ry="4.2946" style="stroke:none;stroke-width:0.7157635743443493;"/><!--MD5=[7d0a8afb073bc6c8e54ba97b513b18b1]
link *start to waiting--><g id="link_*start_waiting"><path d="M197.6624,22.9044 C204.8122,22.9044 211.9626,22.9044 219.1124,22.9044 " fill="none" id="*start-to-waiting" style="stroke:#181818;stroke-width:0.7157635743443493;"/><polygon fill="#181818" points="222.8516,22.9044,216.4097,20.0414,219.2727,22.9044,216.4097,25.7675,222.8516,22.9044" style="stroke:#181818;stroke-width:0.7157635743443493;"/></g><!--MD5=[bd5dcdce96a5fa1438db7dddb5fefdd2]
link waiting to fullPower--><g id="link_waiting_fullPower"><path d="M222.8043,37.0937 C218.3995,38.3936 213.9768,39.6526 209.7187,40.7985 C168.135,51.9859 153.5392,42.5901 115.2379,62.2714 C100.3071,69.9437 86.1715,82.4152 75.6805,93.0822 " fill="none" id="waiting-to-fullPower" style="stroke:#181818;stroke-width:0.7157635743443493;"/><polygon fill="#181818" points="73.0936,95.7513,79.6329,93.1182,75.5844,93.1815,75.5212,89.133,73.0936,95.7513" style="stroke:#181818;stroke-width:0.7157635743443493;"/><text fill="#000000" font-family="sans-serif" font-size="9.3049" lengthAdjust="spacing" textLength="46.5246" x="115.9537" y="71.6242">Full Power</text></g><!--MD5=[1325e84fe45ca4d330f83ba39c08b872]
link waiting to halfPower--><g id="link_waiting_halfPower"><path d="M245.5928,41.0054 C230.6205,55.0422 209.7982,75.7156 193.9719,95.9123 C171.5921,124.472 172.8519,136.3565 151.0261,165.3414 C146.2949,171.6244 140.7406,178.0899 135.4647,183.8918 " fill="none" id="waiting-to-halfPower" style="stroke:#181818;stroke-width:0.7157635743443493;"/><polygon fill="#181818" points="132.9015,186.6833,139.3673,183.8745,135.322,184.0471,135.1494,180.0018,132.9015,186.6833" style="stroke:#181818;stroke-width:0.7157635743443493;"/><text fill="#000000" font-family="sans-serif" font-size="9.3049" lengthAdjust="spacing" textLength="49.3877" x="194.6877" y="117.0752">Half Power</text></g><!--MD5=[8012a3e4d54675425d1b023729f56eab]
link fullPower to halfPower--><g id="link_fullPower_halfPower"><path d="M42.136,131.8694 C34.8691,142.0025 29.1833,154.8247 35.7882,165.3414 C41.5467,174.511 50.1598,181.5563 59.633,186.9539 " fill="none" id="fullPower-to-halfPower" style="stroke:#181818;stroke-width:0.7157635743443493;"/><polygon fill="#181818" points="62.8758,188.7218,58.5903,183.1245,59.7336,187.0087,55.8494,188.1519,62.8758,188.7218" style="stroke:#181818;stroke-width:0.7157635743443493;"/><text fill="#000000" font-family="sans-serif" font-size="9.3049" lengthAdjust="spacing" textLength="49.3877" x="36.5039" y="162.5262">Half Power</text></g><!--MD5=[e06fe704ea43d92fe9f439636e24fe9c]
link halfPower to fullPower--><g id="link_halfPower_fullPower"><path d="M108.0767,186.7964 C103.1952,176.7142 96.5257,163.8941 89.4704,153.1734 C85.3405,146.8976 80.3903,140.4342 75.6515,134.6323 " fill="none" id="halfPower-to-fullPower" style="stroke:#181818;stroke-width:0.7157635743443493;"/><polygon fill="#181818" points="73.3465,131.8401,75.2398,138.6305,75.6249,134.5999,79.6555,134.9851,73.3465,131.8401" style="stroke:#181818;stroke-width:0.7157635743443493;"/><text fill="#000000" font-family="sans-serif" font-size="9.3049" lengthAdjust="spacing" textLength="46.5246" x="98.0596" y="162.5262">Full Power</text></g><!--MD5=[c8924d2ebd1a288414b8eba26b41ba16]
link halfPower to setTime--><g id="link_halfPower_setTime"><path d="M115.691,222.7535 C115.4734,237.116 115.1606,257.7457 114.9137,274.0594 " fill="none" id="halfPower-to-setTime" style="stroke:#181818;stroke-width:0.7157635743443493;"/><polygon fill="#181818" points="114.8586,277.6826,117.8188,271.2848,114.9128,274.1042,112.0934,271.1981,114.8586,277.6826" style="stroke:#181818;stroke-width:0.7157635743443493;"/><text fill="#000000" font-family="sans-serif" font-size="9.3049" lengthAdjust="spacing" textLength="26.4833" x="116.6695" y="253.4282">Timer</text></g><!--MD5=[f8be74f510629a6f1c49991bf4a2e3bf]
link fullPower to setTime--><g id="link_fullPower_setTime"><path d="M41.1074,131.7077 C35.8471,137.9935 30.5511,145.4646 27.199,153.1734 C14.8623,181.5448 9.0983,194.571 22.1887,222.6025 C32.4747,244.6287 52.466,262.5943 71.2241,275.6434 " fill="none" id="fullPower-to-setTime" style="stroke:#181818;stroke-width:0.7157635743443493;"/><polygon fill="#181818" points="74.2223,277.6955,70.5235,271.6944,71.269,275.6741,67.2893,276.4196,74.2223,277.6955" style="stroke:#181818;stroke-width:0.7157635743443493;"/><text fill="#000000" font-family="sans-serif" font-size="9.3049" lengthAdjust="spacing" textLength="26.4833" x="22.9044" y="207.9772">Timer</text></g><!--MD5=[7ba18ae4ebb60f034f0cd7a9e2c2f84f]
link setTime to setTime--><g id="link_setTime_setTime"><path d="M155.3565,291.227 C169.2251,291.1776 180.3724,294.3091 180.3724,300.6207 C180.3724,306.3411 171.2171,309.4489 159.1787,309.9442 " fill="none" id="setTime-to-setTime" style="stroke:#181818;stroke-width:0.7157635743443493;"/><polygon fill="#181818" points="155.3565,310.0144,161.8496,312.7591,158.9347,309.9489,161.7449,307.034,155.3565,310.0144" style="stroke:#181818;stroke-width:0.7157635743443493;"/><text fill="#000000" font-family="sans-serif" font-size="9.3049" lengthAdjust="spacing" textLength="36.5039" x="184.667" y="303.8895">Number</text></g><!--MD5=[c54adef80e052e200f8f013bf45ef6a4]
link setTime to disabled--><g id="link_setTime_disabled"><path d="M114.3525,323.727 C114.2352,339.2211 114.0798,359.7013 113.9653,374.8719 " fill="none" id="setTime-to-disabled" style="stroke:#181818;stroke-width:0.7157635743443493;"/><polygon fill="#181818" points="113.9367,378.6082,116.8475,372.1877,113.9633,375.0294,111.1216,372.1452,113.9367,378.6082" style="stroke:#181818;stroke-width:0.7157635743443493;"/><text fill="#000000" font-family="sans-serif" font-size="9.3049" lengthAdjust="spacing" textLength="47.9562" x="115.2379" y="354.3508">Door open</text></g><!--MD5=[de5ba4ba94c76d0a5bd36aea394a43ac]
link setTime to enabled--><g id="link_setTime_enabled"><path d="M148.6541,323.7127 C156.3034,329.9133 163.854,337.1282 169.636,344.998 C197.3389,382.7023 212.7793,436.2672 219.6428,465.5627 " fill="none" id="setTime-to-enabled" style="stroke:#181818;stroke-width:0.7157635743443493;"/><polygon fill="#181818" points="220.5153,469.3584,221.8626,462.4389,219.7136,465.8705,216.282,463.7215,220.5153,469.3584" style="stroke:#181818;stroke-width:0.7157635743443493;"/><text fill="#000000" font-family="sans-serif" font-size="9.3049" lengthAdjust="spacing" textLength="54.398" x="205.4241" y="399.8018">Door closed</text></g><!--MD5=[7348b58b3cd69525be0ad807deb03bab]
link disabled to enabled--><g id="link_disabled_enabled"><path d="M120.0822,414.5831 C124.6989,425.3454 131.8859,438.8368 141.7212,448.068 C150.5881,456.3909 161.5722,463.205 172.5956,468.6641 " fill="none" id="disabled-to-enabled" style="stroke:#181818;stroke-width:0.7157635743443493;"/><polygon fill="#181818" points="176.0156,470.3146,171.4581,464.9365,172.7924,468.7593,168.9696,470.0936,176.0156,470.3146" style="stroke:#181818;stroke-width:0.7157635743443493;"/><text fill="#000000" font-family="sans-serif" font-size="9.3049" lengthAdjust="spacing" textLength="54.398" x="142.437" y="445.2528">Door closed</text></g><!--MD5=[93b40b04cd812524fbd63d4edf486631]
link enabled to operation--><g id="link_enabled_operation"><path d="M234.5228,505.4014 C243.5157,520.1926 256.4874,541.5286 266.0006,557.1753 " fill="none" id="enabled-to-operation" style="stroke:#181818;stroke-width:0.7157635743443493;"/><polygon fill="#181818" points="267.9754,560.4233,267.0754,553.4316,266.1163,557.3653,262.1826,556.4062,267.9754,560.4233" style="stroke:#181818;stroke-width:0.7157635743443493;"/><text fill="#000000" font-family="sans-serif" font-size="9.3049" lengthAdjust="spacing" textLength="22.1887" x="255.5276" y="536.1548">Start</text></g><!--MD5=[09afa05a46fe214eefcca145f734b189]
link operation to disabled--><g id="link_operation_disabled"><path d="M234.6974,571.7728 C195.5624,563.9694 140.3892,546.0356 113.8064,505.3291 C96.7641,479.2316 101.8381,441.4959 107.5034,418.2135 " fill="none" id="operation-to-disabled" style="stroke:#181818;stroke-width:0.7157635743443493;"/><polygon fill="#181818" points="108.4138,414.6046,104.0604,420.1492,107.5374,418.0745,109.6122,421.5515,108.4138,414.6046" style="stroke:#181818;stroke-width:0.7157635743443493;"/><text fill="#000000" font-family="sans-serif" font-size="9.3049" lengthAdjust="spacing" textLength="47.9562" x="114.5222" y="490.7038">Door open</text></g><!--MD5=[ec9973251898223bb84e29c2e838dc9e]
link operation to waiting--><g id="link_operation_waiting"><path d="M288.3969,560.4276 C297.6231,542.8609 309.9256,514.4987 309.9256,488.1508 C309.9256,113.0906 309.9256,113.0906 309.9256,113.0906 C309.9256,87.1106 294.5761,60.9902 281.7882,43.7374 " fill="none" id="operation-to-waiting" style="stroke:#181818;stroke-width:0.7157635743443493;"/><polygon fill="#181818" points="279.598,40.8336,281.1923,47.7004,281.7535,43.6905,285.7634,44.2517,279.598,40.8336" style="stroke:#181818;stroke-width:0.7157635743443493;"/><text fill="#000000" font-family="sans-serif" font-size="9.3049" lengthAdjust="spacing" textLength="29.3463" x="310.6414" y="303.8895">cancel</text></g><!--MD5=[ec9973251898223bb84e29c2e838dc9e]
link operation to waiting--><g id="link_operation_waiting"><path d="M322.201,562.7109 C353.754,548.8688 390.8069,524.8094 390.8069,488.1508 C390.8069,113.0906 390.8069,113.0906 390.8069,113.0906 C390.8069,72.2907 346.3415,48.3899 310.2456,35.7094 " fill="none" id="operation-to-waiting-1" style="stroke:#181818;stroke-width:0.7157635743443493;"/><polygon fill="#181818" points="306.7798,34.517,311.9396,39.3203,310.1639,35.6815,313.8028,33.9058,306.7798,34.517" style="stroke:#181818;stroke-width:0.7157635743443493;"/><text fill="#000000" font-family="sans-serif" font-size="9.3049" lengthAdjust="spacing" textLength="42.9458" x="391.5227" y="303.8895">Time end</text></g><!--MD5=[f16cdef686421bc71f776d15703274f2]
link waiting to *end--><g id="link_waiting_*end"><path d="M264.8325,40.8708 C264.8325,59.2366 264.8325,87.6932 264.8325,102.8194 " fill="none" id="waiting-to-*end" style="stroke:#181818;stroke-width:0.7157635743443493;"/><polygon fill="#181818" points="264.8325,106.5385,267.6956,100.0967,264.8325,102.9597,261.9695,100.0967,264.8325,106.5385" style="stroke:#181818;stroke-width:0.7157635743443493;"/><text fill="#000000" font-family="sans-serif" font-size="9.3049" lengthAdjust="spacing" textLength="17.1783" x="265.5483" y="71.6242">end</text></g><!--MD5=[cdbb89feba5a33c3368ba002b79eddc1]
@startuml
scale 600 height


state "Waiting" as waiting
state "set Time" as setTime
state "Disabled" as disabled
state "Enabled" as enabled
state "Operation" as operation

waiting: do: display time
fullPower: do: set power = 600
halfPower: do: set power = 300
setTime: do: get number\nexit: set time
disabled: do: display `waiting`
enabled: do: display 'Ready'
operation: do operate oven

[*] -> waiting
waiting - -> fullPower : Full Power
waiting - -> halfPower : Half Power

fullPower - -> halfPower : Half Power
halfPower - -> fullPower : Full Power
halfPower - -> setTime: Timer
fullPower - -> setTime: Timer

setTime - -> setTime: Number
setTime - ->  disabled: Door open
setTime - -> enabled: Door closed
disabled - -> enabled: Door closed


enabled - -> operation: Start
operation - -> disabled: Door open
operation - -> waiting :cancel
operation - -> waiting :Time end
waiting - -> [*]: end
@enduml

PlantUML version 1.2022.14beta6(Unknown compile time)
(GPL source distribution)
Java Runtime: Java(TM) SE Runtime Environment
JVM: Java HotSpot(TM) 64-Bit Server VM
Default Encoding: UTF-8
Language: en
Country: US
--></g></svg>