<?xml version="1.0" encoding="UTF-8" standalone="no"?><svg xmlns="http://www.w3.org/2000/svg" xmlns:xlink="http://www.w3.org/1999/xlink" contentStyleType="text/css" height="422.3345px" preserveAspectRatio="none" style="width:601px;height:422px;background:#FFFFFF;" version="1.1" viewBox="0 0 601 422" width="601.0144px" zoomAndPan="magnify"><defs/><g><!--MD5=[0be2d1da39bee53638b9df3afbeb4310]
cluster Operation--><g id="cluster_Operation"><path d="M92.6571,7.5804 L503.0797,7.5804 A13.5364,13.5364 0 0 1 516.616,21.1167 L516.616,30.6429 L79.1207,30.6429 L79.1207,21.1167 A13.5364,13.5364 0 0 1 92.6571,7.5804 " fill="#F1F1F1" style="stroke:#F1F1F1;stroke-width:1.082908914257113;"/><rect fill="none" height="294.5512" rx="13.5364" ry="13.5364" style="stroke:#181818;stroke-width:0.5414544571285566;" width="437.4953" x="79.1207" y="7.5804"/><line style="stroke:#181818;stroke-width:0.5414544571285566;" x1="79.1207" x2="516.616" y1="30.6429" y2="30.6429"/><text fill="#000000" font-family="sans-serif" font-size="15.1607" lengthAdjust="spacing" textLength="79.0524" x="258.3422" y="25.9845">Operation</text></g><g id="Operation.Checking"><rect fill="#F1F1F1" height="69.56" rx="13.5364" ry="13.5364" style="stroke:#181818;stroke-width:0.5414544571285566;" width="94.2131" x="183.6215" y="54.1454"/><line style="stroke:#181818;stroke-width:0.5414544571285566;" x1="183.6215" x2="277.8346" y1="82.6226" y2="82.6226"/><text fill="#000000" font-family="sans-serif" font-size="15.1607" lengthAdjust="spacing" textLength="72.5549" x="194.4506" y="73.6325">Checking</text><text fill="#000000" font-family="sans-serif" font-size="12.9949" lengthAdjust="spacing" textLength="64.9745" x="189.0361" y="100.0993">do: check</text><text fill="#000000" font-family="sans-serif" font-size="12.9949" lengthAdjust="spacing" textLength="38.9847" x="189.0361" y="115.2262">status</text></g><g id="Operation.Cook"><rect fill="#F1F1F1" height="69.56" rx="13.5364" ry="13.5364" style="stroke:#181818;stroke-width:0.5414544571285566;" width="86.6327" x="336.8531" y="54.1454"/><line style="stroke:#181818;stroke-width:0.5414544571285566;" x1="336.8531" x2="423.4858" y1="82.6226" y2="82.6226"/><text fill="#000000" font-family="sans-serif" font-size="15.1607" lengthAdjust="spacing" textLength="40.0676" x="360.1357" y="73.6325">Cook</text><text fill="#000000" font-family="sans-serif" font-size="12.9949" lengthAdjust="spacing" textLength="46.5651" x="342.2677" y="100.0993">do: run</text><text fill="#000000" font-family="sans-serif" font-size="12.9949" lengthAdjust="spacing" textLength="64.9745" x="342.2677" y="115.2262">generator</text></g><g id="Operation.Alarm"><rect fill="#F1F1F1" height="54.4331" rx="13.5364" ry="13.5364" style="stroke:#181818;stroke-width:0.5414544571285566;" width="135.3636" x="126.2274" y="214.416"/><line style="stroke:#181818;stroke-width:0.5414544571285566;" x1="126.2274" x2="261.591" y1="242.8931" y2="242.8931"/><text fill="#000000" font-family="sans-serif" font-size="15.1607" lengthAdjust="spacing" textLength="45.4822" x="171.1681" y="233.903">Alarm</text><text fill="#000000" font-family="sans-serif" font-size="12.9949" lengthAdjust="spacing" textLength="113.7054" x="131.6419" y="260.3698">do: display event</text></g><g id="Operation.Done"><rect fill="#F1F1F1" height="69.56" rx="13.5364" ry="13.5364" style="stroke:#181818;stroke-width:0.5414544571285566;" width="113.7054" x="368.7989" y="206.8356"/><line style="stroke:#181818;stroke-width:0.5414544571285566;" x1="368.7989" x2="482.5044" y1="235.3127" y2="235.3127"/><text fill="#000000" font-family="sans-serif" font-size="15.1607" lengthAdjust="spacing" textLength="41.1505" x="405.0764" y="226.3227">Done</text><text fill="#000000" font-family="sans-serif" font-size="12.9949" lengthAdjust="spacing" textLength="92.0473" x="374.2135" y="252.7894">do: buzzer on</text><text fill="#000000" font-family="sans-serif" font-size="12.9949" lengthAdjust="spacing" textLength="70.3891" x="378.5451" y="267.9163">for 5 secs.</text></g><g id="Disabled"><rect fill="#F1F1F1" height="54.1454" rx="13.5364" ry="13.5364" style="stroke:#181818;stroke-width:0.5414544571285566;" width="88.7985" x="13.0632" y="361.6916"/><line style="stroke:#181818;stroke-width:0.5414544571285566;" x1="13.0632" x2="101.8617" y1="390.1687" y2="390.1687"/><text fill="#000000" font-family="sans-serif" font-size="15.1607" lengthAdjust="spacing" textLength="67.1404" x="23.8923" y="381.1787">Disabled</text></g><g id="Waiting"><rect fill="#F1F1F1" height="54.1454" rx="13.5364" ry="13.5364" style="stroke:#181818;stroke-width:0.5414544571285566;" width="81.2182" x="484.6702" y="361.6916"/><line style="stroke:#181818;stroke-width:0.5414544571285566;" x1="484.6702" x2="565.8884" y1="390.1687" y2="390.1687"/><text fill="#000000" font-family="sans-serif" font-size="15.1607" lengthAdjust="spacing" textLength="59.56" x="495.4993" y="381.1787">Waiting</text></g><!--MD5=[00418831a52ae97a261d74e256365ed5]
link Checking to Cook--><g id="link_Checking_Cook"><path d="M278.0122,88.7985 C294.9142,88.7985 313.9908,88.7985 331.0444,88.7985 " fill="none" id="Checking-to-Cook" style="stroke:#181818;stroke-width:1.082908914257113;"/><polygon fill="#181818" points="336.7438,88.7985,326.9976,84.4669,331.3292,88.7985,326.9976,93.1302,336.7438,88.7985" style="stroke:#181818;stroke-width:1.082908914257113;"/><text fill="#000000" font-family="sans-serif" font-size="14.0778" lengthAdjust="spacing" textLength="19.4924" x="297.5977" y="81.2906">OK</text></g><!--MD5=[643f5deea1ac5657321a4852968b5460]
reverse link Cook to Cook--><g id="link_Cook_Cook"><path d="M429.209,74.6016 C446.9232,74.2713 461.3877,79.0036 461.3877,88.7985 C461.3877,99.606 443.7763,104.2506 423.6201,102.7302 " fill="none" id="Cook-backto-Cook" style="stroke:#181818;stroke-width:1.082908914257113;"/><polygon fill="#181818" points="423.6201,74.8669,433.5608,78.7314,429.0286,74.6101,433.1499,70.0779,423.6201,74.8669" style="stroke:#181818;stroke-width:1.082908914257113;"/><text fill="#000000" font-family="sans-serif" font-size="14.0778" lengthAdjust="spacing" textLength="34.6531" x="467.8851" y="93.7441">Time</text></g><!--MD5=[e5fac8494847aa2ba2a7c76d722b6365]
link Cook to Done--><g id="link_Cook_Done"><path d="M390.3759,123.6617 C397.3401,146.7093 406.5849,177.3036 413.8631,201.3907 " fill="none" id="Cook-to-Done" style="stroke:#181818;stroke-width:1.082908914257113;"/><polygon fill="#181818" points="415.4788,206.7381,416.8049,196.1555,413.912,201.5552,408.5123,198.6623,415.4788,206.7381" style="stroke:#181818;stroke-width:1.082908914257113;"/><text fill="#000000" font-family="sans-serif" font-size="14.0778" lengthAdjust="spacing" textLength="57.3942" x="407.2422" y="170.0891">Timeout</text></g><!--MD5=[bd13c690d34397958babffdcd4578281]
link Checking to Alarm--><g id="link_Checking_Alarm"><path d="M183.3984,122.3232 C167.458,134.3533 152.6265,147.1836 148.427,155.9389 C139.7366,174.0581 149.341,193.8602 161.9254,209.7356 " fill="none" id="Checking-to-Alarm" style="stroke:#181818;stroke-width:1.082908914257113;"/><polygon fill="#181818" points="165.5413,214.1041,162.6626,203.8345,162.0884,209.9334,155.9895,209.3591,165.5413,214.1041" style="stroke:#181818;stroke-width:1.082908914257113;"/><text fill="#000000" font-family="sans-serif" font-size="14.0778" lengthAdjust="spacing" textLength="101.7934" x="149.5099" y="170.0891">Turntable fault</text></g><!--MD5=[bd13c690d34397958babffdcd4578281]
link Checking to Alarm--><g id="link_Checking_Alarm"><path d="M251.6531,123.6151 C258.6844,139.2545 263.2641,157.9628 256.7179,174.3483 C251.3748,187.7212 241.8939,199.9331 231.8922,210.1211 " fill="none" id="Checking-to-Alarm-1" style="stroke:#181818;stroke-width:1.082908914257113;"/><polygon fill="#181818" points="227.5844,214.3607,237.5695,210.6126,231.4438,210.5631,231.4933,204.4375,227.5844,214.3607" style="stroke:#181818;stroke-width:1.082908914257113;"/><text fill="#000000" font-family="sans-serif" font-size="14.0778" lengthAdjust="spacing" textLength="86.6327" x="261.0495" y="170.0891">Emitter fault</text></g><!--MD5=[7780875dd6ea8fd651a610ea47ce879f]
link Alarm to Disabled--><g id="link_Alarm_Disabled"><path d="M169.1993,268.8495 C145.7262,293.8127 110.4589,331.3201 85.8437,357.4981 " fill="none" id="Alarm-to-Disabled" style="stroke:#181818;stroke-width:1.082908914257113;"/><polygon fill="#181818" points="81.9881,361.5986,91.8202,357.4656,85.6973,357.654,85.5089,351.531,81.9881,361.5986" style="stroke:#181818;stroke-width:1.082908914257113;"/></g><!--MD5=[d925bb1573285194caf39ba0e394740d]
link Done to Waiting--><g id="link_Done_Waiting"><path d="M448.7588,276.2273 C465.4648,300.5603 487.8594,333.1793 504.103,356.838 " fill="none" id="Done-to-Waiting" style="stroke:#181818;stroke-width:1.082908914257113;"/><polygon fill="#181818" points="507.2662,361.4451,505.3218,350.9584,504.202,356.981,498.1793,355.8612,507.2662,361.4451" style="stroke:#181818;stroke-width:1.082908914257113;"/></g><!--MD5=[56fdd7979468970e12665b4b5666c85d]
link Operation to Disabled--><g id="link_Operation_Disabled"><path d="M79.0506,100.3377 C78.9713,100.4365 78.8916,100.5359 78.8115,100.6359 C78.4911,101.036 78.1639,101.446 77.8302,101.8657 C72.492,108.582 65.506,117.7943 58.1414,128.6557 C43.412,150.3784 27.1678,178.6973 19.5607,206.8356 C6.4975,255.155 7.0049,271.0045 19.5607,319.4581 C22.9212,332.4268 29.3398,345.5548 35.9529,356.7845 " fill="none" id="Operation-to-Disabled" style="stroke:#181818;stroke-width:1.082908914257113;"/><polygon fill="#181818" points="38.7907,361.475,37.4517,350.894,35.9878,356.8424,30.0394,355.3785,38.7907,361.475" style="stroke:#181818;stroke-width:1.082908914257113;"/><text fill="#000000" font-family="sans-serif" font-size="14.0778" lengthAdjust="spacing" textLength="74.7207" x="20.6436" y="246.4342">Door Open</text></g><!--MD5=[ea08b6125d01360d7651324182d05525]
link Operation to Waiting--><g id="link_Operation_Waiting"><path d="M517.0483,166.3416 C519.8301,169.968 522.3674,173.7456 524.6772,177.6523 C529.2967,185.4655 533.0059,193.7945 535.94,202.4602 C541.8081,219.7915 544.5756,238.4693 545.3233,257.0606 C546.8186,294.2434 540.2348,331.0803 534.2187,356.1079 " fill="none" id="Operation-to-Waiting" style="stroke:#181818;stroke-width:1.082908914257113;"/><polygon fill="#181818" points="532.916,361.3868,539.4571,352.9628,534.2136,356.1301,531.0463,350.8866,532.916,361.3868" style="stroke:#181818;stroke-width:1.082908914257113;"/><text fill="#000000" font-family="sans-serif" font-size="14.0778" lengthAdjust="spacing" textLength="46.5651" x="545.8546" y="246.4342">Cancel</text></g><!--MD5=[5eee019f3cc2aa23a124571eca856b8f]
@startuml
scale 600 width 


state Operation {
state Checking: do: check \nstatus
state Cook: do: run \ngenerator
state Alarm: do: display event
state Done:  do: buzzer on\n for 5 secs.

Checking -> Cook: OK
Cook -up-> Cook: Time
Cook -down-> Done: Timeout

Checking -down-> Alarm: Turntable fault
Checking -down-> Alarm: Emitter fault 
}


Alarm -down-> Disabled
Done -down-> Waiting

Operation -> Disabled: Door Open
Operation -> Waiting: Cancel
@enduml

PlantUML version 1.2022.14beta6(Unknown compile time)
(GPL source distribution)
Java Runtime: Java(TM) SE Runtime Environment
JVM: Java HotSpot(TM) 64-Bit Server VM
Default Encoding: UTF-8
Language: en
Country: US
--></g></svg>