<?xml version='1.0' encoding='UTF-8'?>
<!DOCTYPE svg PUBLIC "-//W3C//DTD SVG 1.0//EN" "http://www.w3.org/TR/2001/REC-SVG-20010904/DTD/svg10.dtd">
<svg viewBox="0 0 448 600" xmlns="http://www.w3.org/2000/svg" xmlns:inkspace="http://www.inkscape.org/namespaces/inkscape" xmlns:xlink="http://www.w3.org/1999/xlink" width="448px" height="600px">
  <defs id="defs_block">
    <filter height="1.504" id="filter_blur" inkspace:collect="always" width="1.1575" x="-0.07875" y="-0.252">
      <feGaussianBlur id="feGaussianBlur3780" inkspace:collect="always" stdDeviation="4.2" />
    </filter>
  </defs>
  <title>blockdiag</title>
  <desc>blockdiag {
  "Project Repository" -&gt; "Report Generator"; 
  "Project Repository" -&gt; "Design Analyser";
  "Project Repository" -&gt; "Design Translator";
  "Project Repository" -&gt; "UML Editors";
  "Project Repository" -&gt; "Code Generators";
  "Project Repository" -&gt; "Java Editor";
  "Project Repository" -&gt; "Python Editor";
  "Project Repository" -&gt; "Design Analyser";
  "Project Repository" -&gt; "Design Analyser";


  "Project Repository" [color = "skyblue"];

}</desc>
  <rect fill="rgb(0,0,0)" height="40" stroke="rgb(0,0,0)" style="filter:url(#filter_blur);opacity:0.7;fill-opacity:1" width="128" x="67" y="46" />
  <rect fill="rgb(0,0,0)" height="40" stroke="rgb(0,0,0)" style="filter:url(#filter_blur);opacity:0.7;fill-opacity:1" width="128" x="259" y="46" />
  <rect fill="rgb(0,0,0)" height="40" stroke="rgb(0,0,0)" style="filter:url(#filter_blur);opacity:0.7;fill-opacity:1" width="128" x="259" y="126" />
  <rect fill="rgb(0,0,0)" height="40" stroke="rgb(0,0,0)" style="filter:url(#filter_blur);opacity:0.7;fill-opacity:1" width="128" x="259" y="206" />
  <rect fill="rgb(0,0,0)" height="40" stroke="rgb(0,0,0)" style="filter:url(#filter_blur);opacity:0.7;fill-opacity:1" width="128" x="259" y="286" />
  <rect fill="rgb(0,0,0)" height="40" stroke="rgb(0,0,0)" style="filter:url(#filter_blur);opacity:0.7;fill-opacity:1" width="128" x="259" y="366" />
  <rect fill="rgb(0,0,0)" height="40" stroke="rgb(0,0,0)" style="filter:url(#filter_blur);opacity:0.7;fill-opacity:1" width="128" x="259" y="446" />
  <rect fill="rgb(0,0,0)" height="40" stroke="rgb(0,0,0)" style="filter:url(#filter_blur);opacity:0.7;fill-opacity:1" width="128" x="259" y="526" />
  <rect fill="rgb(135,206,235)" height="40" stroke="rgb(0,0,0)" width="128" x="64" y="40" />
  <text fill="rgb(0,0,0)" font-family="sans-serif" font-size="11" font-style="normal" font-weight="normal" text-anchor="middle" textLength="108" x="128.0" y="66">Project Repository</text>
  <rect fill="rgb(255,255,255)" height="40" stroke="rgb(0,0,0)" width="128" x="256" y="40" />
  <text fill="rgb(0,0,0)" font-family="sans-serif" font-size="11" font-style="normal" font-weight="normal" text-anchor="middle" textLength="96" x="320.0" y="66">Report Generator</text>
  <rect fill="rgb(255,255,255)" height="40" stroke="rgb(0,0,0)" width="128" x="256" y="120" />
  <text fill="rgb(0,0,0)" font-family="sans-serif" font-size="11" font-style="normal" font-weight="normal" text-anchor="middle" textLength="90" x="320.0" y="146">Design Analyser</text>
  <rect fill="rgb(255,255,255)" height="40" stroke="rgb(0,0,0)" width="128" x="256" y="200" />
  <text fill="rgb(0,0,0)" font-family="sans-serif" font-size="11" font-style="normal" font-weight="normal" text-anchor="middle" textLength="102" x="320.0" y="226">Design Translator</text>
  <rect fill="rgb(255,255,255)" height="40" stroke="rgb(0,0,0)" width="128" x="256" y="280" />
  <text fill="rgb(0,0,0)" font-family="sans-serif" font-size="11" font-style="normal" font-weight="normal" text-anchor="middle" textLength="66" x="320.0" y="306">UML Editors</text>
  <rect fill="rgb(255,255,255)" height="40" stroke="rgb(0,0,0)" width="128" x="256" y="360" />
  <text fill="rgb(0,0,0)" font-family="sans-serif" font-size="11" font-style="normal" font-weight="normal" text-anchor="middle" textLength="90" x="320.0" y="386">Code Generators</text>
  <rect fill="rgb(255,255,255)" height="40" stroke="rgb(0,0,0)" width="128" x="256" y="440" />
  <text fill="rgb(0,0,0)" font-family="sans-serif" font-size="11" font-style="normal" font-weight="normal" text-anchor="middle" textLength="66" x="320.0" y="466">Java Editor</text>
  <rect fill="rgb(255,255,255)" height="40" stroke="rgb(0,0,0)" width="128" x="256" y="520" />
  <text fill="rgb(0,0,0)" font-family="sans-serif" font-size="11" font-style="normal" font-weight="normal" text-anchor="middle" textLength="78" x="320.0" y="546">Python Editor</text>
  <path d="M 192 60 L 248 60" fill="none" stroke="rgb(0,0,0)" />
  <polygon fill="rgb(0,0,0)" points="255,60 248,56 248,64 255,60" stroke="rgb(0,0,0)" />
  <path d="M 192 60 L 224 60" fill="none" stroke="rgb(0,0,0)" />
  <path d="M 224 60 L 224 140" fill="none" stroke="rgb(0,0,0)" />
  <path d="M 224 140 L 248 140" fill="none" stroke="rgb(0,0,0)" />
  <polygon fill="rgb(0,0,0)" points="255,140 248,136 248,144 255,140" stroke="rgb(0,0,0)" />
  <path d="M 192 60 L 224 60" fill="none" stroke="rgb(0,0,0)" />
  <path d="M 224 60 L 224 220" fill="none" stroke="rgb(0,0,0)" />
  <path d="M 224 220 L 248 220" fill="none" stroke="rgb(0,0,0)" />
  <polygon fill="rgb(0,0,0)" points="255,220 248,216 248,224 255,220" stroke="rgb(0,0,0)" />
  <path d="M 192 60 L 224 60" fill="none" stroke="rgb(0,0,0)" />
  <path d="M 224 60 L 224 300" fill="none" stroke="rgb(0,0,0)" />
  <path d="M 224 300 L 248 300" fill="none" stroke="rgb(0,0,0)" />
  <polygon fill="rgb(0,0,0)" points="255,300 248,296 248,304 255,300" stroke="rgb(0,0,0)" />
  <path d="M 192 60 L 224 60" fill="none" stroke="rgb(0,0,0)" />
  <path d="M 224 60 L 224 380" fill="none" stroke="rgb(0,0,0)" />
  <path d="M 224 380 L 248 380" fill="none" stroke="rgb(0,0,0)" />
  <polygon fill="rgb(0,0,0)" points="255,380 248,376 248,384 255,380" stroke="rgb(0,0,0)" />
  <path d="M 192 60 L 224 60" fill="none" stroke="rgb(0,0,0)" />
  <path d="M 224 60 L 224 460" fill="none" stroke="rgb(0,0,0)" />
  <path d="M 224 460 L 248 460" fill="none" stroke="rgb(0,0,0)" />
  <polygon fill="rgb(0,0,0)" points="255,460 248,456 248,464 255,460" stroke="rgb(0,0,0)" />
  <path d="M 192 60 L 224 60" fill="none" stroke="rgb(0,0,0)" />
  <path d="M 224 60 L 224 540" fill="none" stroke="rgb(0,0,0)" />
  <path d="M 224 540 L 248 540" fill="none" stroke="rgb(0,0,0)" />
  <polygon fill="rgb(0,0,0)" points="255,540 248,536 248,544 255,540" stroke="rgb(0,0,0)" />
</svg>